# xmcd
#
# Track frame offsets:
#  300
#  10196
#  28243
#  57354
#  86920
#  104655
#  123075
#  145732
#  164857
#  190171
#  205469
#  218754
#  229376
#  249019
#  269290
#  289031
#  305536
#
# Disc length: 4361 seconds
#
# Revision: 0
# Processed by: cddbd v1.5.2PL0 Copyright (c) Steve Scherf et al.
# Submitted via: AltoMP3_Maker 3.0
#
DISCID=01110511
DTITLE=Various Artist - Van Duytsche Bloed
DYEAR=1900
DGENRE=
TTITLE0=Volksweerbaarheid - Volksdansbaarheid
TTITLE1=Challenge Of Honour - The Hope For Truth
TTITLE2=H.E.R.R. - Es Regnet Das Leben Heraus
TTITLE3=HERAS - Adrenaline
TTITLE4=Lilith Contour - Setting The World Ablaze
TTITLE5=Laufeyiar Sonr - Grimhild
TTITLE6=Spermblaster - Solockos
TTITLE7=8Punkt3 - Killdata.exe
TTITLE8=The Peoples Republic Of Europe - Angst!
TTITLE9=distSync - The Scent Of A Premature Burnout
TTITLE10=RVProject - The Cave Leads
TTITLE11=Mutagenesis - Destroy Everything
TTITLE12=Silver Phoenix - Nights In White Satin
TTITLE13=Dissident Copies - Icy Distant Tear
TTITLE14=[Subroutine C12] - Unnamed (demo version)
TTITLE15=Fertile Reality - Bring Out Your Dead
TTITLE16=Duisterkilte - Heidenzoon
EXTD=
EXTT0=
EXTT1=
EXTT2=
EXTT3=
EXTT4=
EXTT5=
EXTT6=
EXTT7=
EXTT8=
EXTT9=
EXTT10=
EXTT11=
EXTT12=
EXTT13=
EXTT14=
EXTT15=
EXTT16=
PLAYORDER=
